<svg width="216" height="35" viewBox="0 0 216 35" fill="none" xmlns="http://www.w3.org/2000/svg">
<path d="M77.339 34.9637C69.5628 34.9637 62.357 32.8182 57.5531 28.8172C55.8353 27.3874 54.4665 25.6346 53.5383 23.6757C52.61 21.7169 52.1436 19.5971 52.1702 17.458C52.1648 15.3277 52.641 13.22 53.5681 11.2704C54.4952 9.3209 55.8527 7.57276 57.5531 6.13851C62.0138 2.38389 69.9059 0 77.339 0C85.5614 0 92.1452 1.91903 97.1764 6.14646C98.8702 7.58022 100.218 9.32869 101.133 11.2778C102.048 13.2268 102.509 15.3327 102.486 17.458C102.475 19.5854 101.999 21.6886 101.086 23.6408C100.173 25.5931 98.8435 27.3539 97.1764 28.8172C92.4884 32.842 85.1281 34.9637 77.339 34.9637V30.3628C81.4609 30.3628 85.2868 29.0437 87.959 26.5804C90.6311 24.117 91.845 21.1292 91.845 17.4421C91.845 13.9219 90.5111 10.6321 87.959 8.30388C85.3212 5.90012 81.4052 4.54528 77.339 4.54528C73.2729 4.54528 69.3397 5.88821 66.7019 8.30388C64.1584 10.6361 62.8416 13.9378 62.8416 17.4421C62.8035 19.1258 63.1249 20.7998 63.7873 22.3681C64.4498 23.9363 65.4403 25.3678 66.7019 26.5804C69.3397 29.0159 73.2472 30.3628 77.339 30.3628V34.9637ZM20.5591 0C16.4029 0 11.6805 0.723113 7.69156 2.38389C3.96856 3.92547 0.936123 6.40074 0.936123 10.505C0.930529 12.6543 1.81295 14.7241 3.40239 16.2899C4.47897 17.2117 6.21609 18.7771 10.754 19.6989C12.7828 20.0962 17.1191 20.7359 21.4383 21.157C25.7575 21.5782 29.9437 21.9516 31.6594 22.3768C33.0234 22.6986 35.3181 23.1356 35.3181 25.5195C35.3181 27.9034 32.9033 28.6186 32.4829 28.7735C32.0626 28.9285 29.1631 30.1602 23.9561 30.1602C20.5061 30.0714 17.0874 29.5269 13.8036 28.5431C11.8606 27.8994 9.82327 27.0532 7.92317 24.9037C7.15636 23.8915 6.73094 22.6913 6.70076 21.455H1.98268V33.6923H7.22404V32.0355C7.22321 31.9126 7.25776 31.7917 7.32414 31.6853C7.39051 31.5789 7.4863 31.4908 7.60165 31.4301C7.717 31.3694 7.84774 31.3383 7.9804 31.3399C8.11305 31.3416 8.24284 31.376 8.35638 31.4395C10.8258 32.4349 13.3943 33.204 16.0254 33.736C18.7791 34.2684 20.5591 34.6538 23.9818 34.6538C27.5936 34.7174 31.1931 34.2466 34.6447 33.2592C36.9366 32.6773 39.0871 31.6941 40.9798 30.3628C42.0443 29.6053 42.9048 28.6295 43.4934 27.512C44.0821 26.3945 44.383 25.1657 44.3725 23.9223C44.3904 21.5601 43.4062 19.2858 41.6317 17.5891C40.6451 16.7021 39.502 15.9778 38.2519 15.4476C36.908 14.8852 35.5128 14.4344 34.0828 14.1007C31.3635 13.4849 25.2557 12.7141 22.3348 12.4439C19.2723 12.1499 13.958 11.7407 11.8349 11.1328C11.1915 10.946 9.87903 10.3699 9.87903 8.95945C9.87903 7.95424 10.4795 7.10399 11.6633 6.41663C13.5463 5.32402 17.3465 4.64461 21.3097 4.64461C25.1458 4.60171 28.9505 5.29008 32.4872 6.66694C33.4374 7.0504 34.331 7.54439 35.1465 8.13701C36.4758 9.18872 37.3964 10.615 37.7672 12.1976H42.0006V1.54555H37.2825V2.7812C37.2825 3.17852 36.8536 3.70297 35.9958 3.2699C33.8683 2.24483 27.8892 0.027812 20.5591 0ZM124.138 1.95479L147.197 21.2285L146.961 8.25223C146.935 6.54775 146.6 5.83655 144.61 5.83655H140.278V1.95479H160.008V5.83655H155.775C153.751 5.83655 153.63 6.44047 153.596 8.25223L153.952 33.0486H147.197L120.634 11.093V26.6717C120.655 28.3683 120.741 29.1669 122.624 29.1669H127.342V33.0486H108.002V29.1669H112.532C114.222 29.1669 114.153 27.673 114.153 26.5843V8.39923C114.153 7.20729 113.973 5.84053 111.322 5.84053H107.651V1.95479H124.138ZM182.518 29.1589C182.908 29.159 183.298 29.1364 183.685 29.0914C183.886 29.0355 184.071 28.9397 184.228 28.8107C184.385 28.6817 184.51 28.5226 184.594 28.3444C184.653 28.0684 184.683 27.7876 184.684 27.5061V21.3676C184.684 21.161 184.684 21.157 184.401 20.8312C184.118 20.5054 172.323 8.11714 171.786 7.5609C171.117 6.88547 169.942 5.84053 168.154 5.84053H164.057V1.95479H187.176V5.83258H184.388C183.745 5.83258 183.316 6.40074 183.865 7.02453C183.865 7.02453 191.645 15.6463 191.718 15.7376C191.791 15.829 191.855 15.8489 191.954 15.7655C192.053 15.682 199.928 7.10399 199.988 7.02453C200.081 6.91137 200.137 6.77583 200.149 6.63402C200.162 6.49222 200.13 6.3501 200.057 6.22457C199.985 6.09904 199.876 5.99537 199.742 5.92589C199.607 5.8564 199.455 5.82401 199.301 5.83258H196.441V1.95479H215.394V5.84053H211.161C209.625 5.84053 209.016 6.10275 207.845 7.31059L195.085 20.7955C194.96 20.9624 194.905 21.1658 194.931 21.3676V27.5021C194.933 27.7837 194.965 28.0645 195.025 28.3405C195.108 28.5188 195.231 28.6782 195.388 28.8073C195.544 28.9364 195.729 29.032 195.93 29.0874C196.314 29.1344 196.701 29.157 197.088 29.155H201.416V33.0407H178.417V29.155L182.518 29.1589Z" fill="white"/>
</svg>
